<?xml version="1.0" encoding="utf-8"?>
<!-- Generator: Adobe Illustrator 16.0.0, SVG Export Plug-In . SVG Version: 6.00 Build 0)  -->
<!DOCTYPE svg PUBLIC "-//W3C//DTD SVG 1.1//EN" "http://www.w3.org/Graphics/SVG/1.1/DTD/svg11.dtd">
<svg version="1.1" id="Layer_1" xmlns="http://www.w3.org/2000/svg" xmlns:xlink="http://www.w3.org/1999/xlink" x="0px" y="0px"
	 width="792px" height="612px" viewBox="0 0 792 612" enable-background="new 0 0 792 612" xml:space="preserve">
<g>
	<path fill="#FFFFFF" d="M450.358,433.556c-2.722,1.56-5.58,2.816-8.534,3.864c-6.137,2.176-12.422,3.225-18.938,2.465
		c-3.638-0.424-7.084-1.486-10.327-3.198c-4.32-2.28-7.877-5.454-10.808-9.332c-3.54-4.685-6.61-9.684-9.624-14.714
		c-8.56-14.291-16.542-28.906-24.412-43.582c-15.092-28.146-29.659-56.564-44.064-85.066c-1.652-3.269-2.851-6.66-3.668-10.209
		c-1.541-6.694-2-13.423-0.721-20.221c1.289-6.853,4.234-12.869,9.022-17.956c3.749-3.982,8.212-6.97,13.114-9.338
		c0.414-0.2,0.824-0.406,1.224-0.604c0-0.281,0.006-0.479,0-0.678c-0.093-2.798-0.195-5.596-0.278-8.394
		c-0.271-9.062-0.535-18.123-0.801-27.185c-0.2-6.796-0.4-13.592-0.6-20.389c-0.268-9.095-0.534-18.19-0.802-27.285
		c-0.199-6.763-0.404-13.526-0.596-20.289c-0.235-8.229-0.459-16.458-0.69-24.688c-0.011-0.393-0.044-0.785-0.071-1.241
		c-0.599,0-1.128-0.042-1.648,0.007c-3.414,0.321-6.839,0.563-10.235,1.021c-5.606,0.753-11.146,1.883-16.616,3.344
		c-10.206,2.726-19.977,6.511-29.085,11.913c-8.416,4.991-15.858,11.127-22.043,18.745c-6.299,7.76-10.768,16.479-13.601,26.041
		c-1.956,6.603-3.067,13.361-3.491,20.234c-0.063,1.021-0.243,2.035-0.369,3.053c0,3.333,0,6.667,0,10
		c0.052,0.325,0.138,0.647,0.151,0.974c0.227,5.695,0.423,11.391,0.673,17.084c0.173,3.962,0.366,7.924,0.643,11.879
		c0.394,5.616,0.85,11.229,1.325,16.839c0.312,3.684,0.66,7.366,1.073,11.04c0.528,4.699,1.082,9.396,1.728,14.081
		c0.836,6.069,1.65,12.145,2.698,18.179c1.321,7.607,2.769,15.196,4.342,22.756c2.382,11.442,5.32,22.749,8.767,33.921
		c3.596,11.653,7.761,23.093,12.802,34.206c4.149,9.146,8.834,18.002,14.447,26.338c6.216,9.229,12.431,18.462,18.815,27.575
		c12.401,17.7,25.604,34.776,40.07,50.855c10.022,11.142,20.604,21.708,32.075,31.364c9.194,7.74,18.868,14.807,29.285,20.825
		c12.767,7.378,26.222,12.97,40.805,15.6c2.554,0.46,5.108,0.819,7.729,0.79c6.466-0.073,12.933-0.033,19.399-0.015
		c1.072,0.003,2.112-0.104,3.157-0.358c15.345-3.741,30.307-8.632,44.834-14.841c9.292-3.971,18.28-8.519,26.826-13.923
		c0.301-0.19,0.593-0.396,0.956-0.64c-34.478-27.106-68.868-54.146-103.261-81.185C450.77,433.35,450.558,433.441,450.358,433.556z"
		/>
	<path fill="#FFFFFF" d="M574.735,473.053c-1.146-4.262-3.548-7.736-6.882-10.54c-2.905-2.444-5.937-4.74-8.925-7.085
		c-15.752-12.364-31.447-24.801-47.531-36.734c-3.235-2.401-6.454-4.837-10.062-6.677c-3.95-2.015-8.032-3.555-12.581-3.351
		c-0.515,0.023-0.967,0.126-1.422,0.367c-9.003,4.76-18.011,9.51-27.017,14.265c-0.221,0.117-0.421,0.273-0.703,0.459
		c35.404,28.103,70.73,56.142,106.124,84.236c0.13-0.317,0.215-0.491,0.273-0.675c2.69-8.503,5.388-17.004,8.059-25.514
		c0.405-1.29,0.687-2.62,1.024-3.932c0-1.066,0-2.133,0-3.2C574.976,474.133,574.879,473.587,574.735,473.053z"/>
	<path fill="#FFFFFF" d="M350.869,138.161c0.156,9.496,0.34,18.991,0.585,28.484c0.303,11.757,0.643,23.515,1.046,35.269
		c0.174,5.092,0.523,10.179,0.844,15.266c0.085,1.357,0.336,2.707,0.554,4.053c0.151,0.936,0.757,1.553,1.618,1.879
		c0.49,0.185,1.021,0.304,1.544,0.351c1.611,0.146,3.182-0.13,4.735-0.543c4.086-1.084,7.862-2.874,11.466-5.05
		c1.916-1.156,3.74-2.438,5.314-4.043c2.896-2.954,5.574-6.098,8.145-9.335c0.394-0.495,0.565-0.995,0.553-1.635
		c-0.125-6.43-0.23-12.86-0.325-19.291c-0.208-14.16-0.41-28.321-0.609-42.481c-0.118-8.396-0.242-16.793-0.323-25.19
		c-0.017-1.734-0.526-3.264-1.432-4.705c-1.328-2.113-3.049-3.869-4.969-5.435c-3.95-3.222-8.343-5.705-13.015-7.71
		c-2.882-1.237-5.858-2.169-8.962-2.668c-0.583-0.094-1.164-0.201-1.746-0.302c-1.267,0-2.533,0-3.8,0
		c-0.6,0.141-1.2,0.281-1.83,0.429c0,0.483-0.005,0.88,0,1.277C350.463,110.573,350.642,124.368,350.869,138.161z"/>
</g>
</svg>
